<svg width="75" height="78" viewBox="0 0 75 78" fill="none" xmlns="http://www.w3.org/2000/svg">
<g filter="url(#filter0_d_100_87)">
<path d="M46.8024 42.2959V31.5534L37.4997 26.1829L28.197 31.5534V42.2959L37.4997 47.6664L46.8024 42.2959Z" fill="#F855B4"/>
<path d="M44.4664 40.9472V32.9021L37.5 28.8804L30.5335 32.9021V40.9472L37.5 44.9689L44.4664 40.9472Z" fill="#E53229"/>
<path d="M28.197 31.5534L30.5332 32.9021L37.4997 28.8803V26.1829L28.197 31.5534Z" fill="#E53229"/>
<path d="M37.5003 26.1829L46.803 31.5534L44.4668 32.9021L37.5003 28.8803V26.1829Z" fill="url(#paint0_linear_100_87)"/>
<path d="M46.8023 42.2959V31.5533L44.4661 32.902V40.9471L46.8023 42.2959Z" fill="url(#paint1_linear_100_87)"/>
<path d="M37.5003 47.6663V44.9688L44.4668 40.9471L46.803 42.2958L37.5003 47.6663Z" fill="#FD6F5C"/>
<path d="M28.1971 42.2958L30.5334 40.9471L37.4998 44.9688V47.6663L28.1971 42.2958Z" fill="#E53229"/>
<path d="M28.1971 42.2959V31.5533L30.5334 32.902V40.9471L28.1971 42.2959Z" fill="#A01818"/>
<path d="M43.7047 40.5063V33.343L37.4996 29.7605L31.2945 33.343V40.5063L37.4996 44.0888L43.7047 40.5063Z" fill="url(#paint2_linear_100_87)"/>
<path d="M38.2168 32.6618L38.7875 33.5178H40.1994L39.2253 32.0419H37.2148L36.2407 33.5178H37.6527L38.2168 32.6618Z" fill="white"/>
<path d="M37.5785 39.7673C37.5785 40.4009 37.065 40.9143 36.4314 40.9143C35.7979 40.9143 35.2844 40.4009 35.2844 39.7673C35.2844 39.7497 35.285 39.7323 35.2858 39.7151C35.3044 39.9745 35.5206 40.1791 35.7848 40.1791C36.0521 40.1791 36.2704 39.9696 36.2844 39.7057L36.2852 38.2585H34.8379V39.7057C34.8421 40.8671 35.7848 41.8073 36.9472 41.8073C38.107 41.8073 39.048 40.8712 39.0563 39.7134L39.0565 34.1842H37.5785V39.698V39.7673Z" fill="white"/>
<path d="M46.3173 40.7943C46.0127 40.7342 45.7046 40.694 45.3948 40.6739C45.1361 40.6544 44.8791 40.6479 44.622 40.643C44.622 40.3859 44.6106 40.1289 44.5911 39.8718C44.5711 39.5615 44.5309 39.2528 44.4707 38.9477C44.4103 39.2527 44.3706 39.5615 44.352 39.8718C44.3308 40.1289 44.3243 40.3859 44.3194 40.643C44.0624 40.643 43.8053 40.6544 43.5483 40.6739C43.2379 40.6939 42.9293 40.7341 42.6242 40.7943C42.9293 40.8545 43.2379 40.8947 43.5483 40.9147C43.8053 40.9342 44.0624 40.9423 44.3194 40.9456C44.3194 41.2026 44.3308 41.4597 44.3503 41.7167C44.3703 42.0271 44.4105 42.3357 44.4707 42.6408C44.5309 42.3357 44.5711 42.0271 44.5911 41.7167C44.6106 41.4597 44.6188 41.2026 44.622 40.9456C44.8791 40.9456 45.1361 40.9342 45.3948 40.9147C45.7046 40.8946 46.0127 40.8544 46.3173 40.7943Z" fill="white"/>
<g filter="url(#filter1_f_100_87)">
<circle cx="44.4662" cy="40.8254" r="1.78961" fill="white"/>
</g>
<g filter="url(#filter2_f_100_87)">
<circle cx="44.4664" cy="40.825" r="0.488075" fill="white"/>
</g>
</g>
<defs>
<filter id="filter0_d_100_87" x="0" y="0" width="75" height="77.8774" filterUnits="userSpaceOnUse" color-interpolation-filters="sRGB">
<feFlood flood-opacity="0" result="BackgroundImageFix"/>
<feColorMatrix in="SourceAlpha" type="matrix" values="0 0 0 0 0 0 0 0 0 0 0 0 0 0 0 0 0 0 127 0" result="hardAlpha"/>
<feOffset dy="2"/>
<feGaussianBlur stdDeviation="14"/>
<feComposite in2="hardAlpha" operator="out"/>
<feColorMatrix type="matrix" values="0 0 0 0 0.992157 0 0 0 0 0.388235 0 0 0 0 0.309804 0 0 0 0.8 0"/>
<feBlend mode="normal" in2="BackgroundImageFix" result="effect1_dropShadow_100_87"/>
<feBlend mode="normal" in="SourceGraphic" in2="effect1_dropShadow_100_87" result="shape"/>
</filter>
<filter id="filter1_f_100_87" x="25.4131" y="21.7723" width="38.1062" height="38.1061" filterUnits="userSpaceOnUse" color-interpolation-filters="sRGB">
<feFlood flood-opacity="0" result="BackgroundImageFix"/>
<feBlend mode="normal" in="SourceGraphic" in2="BackgroundImageFix" result="shape"/>
<feGaussianBlur stdDeviation="8.57143" result="effect1_foregroundBlur_100_87"/>
</filter>
<filter id="filter2_f_100_87" x="41.6765" y="38.0351" width="5.57974" height="5.57974" filterUnits="userSpaceOnUse" color-interpolation-filters="sRGB">
<feFlood flood-opacity="0" result="BackgroundImageFix"/>
<feBlend mode="normal" in="SourceGraphic" in2="BackgroundImageFix" result="shape"/>
<feGaussianBlur stdDeviation="1.14286" result="effect1_foregroundBlur_100_87"/>
</filter>
<linearGradient id="paint0_linear_100_87" x1="41.4326" y1="30.2226" x2="42.2151" y2="28.7486" gradientUnits="userSpaceOnUse">
<stop stop-color="#FD6F5C"/>
<stop offset="1" stop-color="#FF503E"/>
</linearGradient>
<linearGradient id="paint1_linear_100_87" x1="44.4661" y1="36.9238" x2="46.8023" y2="36.9238" gradientUnits="userSpaceOnUse">
<stop stop-color="#FFD5D2"/>
<stop offset="1" stop-color="#FFBFB5"/>
</linearGradient>
<linearGradient id="paint2_linear_100_87" x1="31.2945" y1="36.9238" x2="43.7047" y2="36.9238" gradientUnits="userSpaceOnUse">
<stop stop-color="#FF503E"/>
<stop offset="1" stop-color="#E53229"/>
</linearGradient>
</defs>
</svg>
