<svg width="23" height="27" viewBox="0 0 23 27" fill="none" xmlns="http://www.w3.org/2000/svg">
<g filter="url(#filter0_i_66_287)">
<path d="M22.5 12.2598C23.1667 12.6447 23.1667 13.607 22.5 13.9919L1.5 26.1162C0.833333 26.5011 6.44345e-07 26.02 6.77994e-07 25.2502L1.73794e-06 1.0015C1.77159e-06 0.231696 0.833336 -0.249427 1.5 0.135473L22.5 12.2598Z" fill="#444444"/>
</g>
<path d="M22.25 12.6932C22.5623 12.8737 22.5819 13.3073 22.3086 13.5194L22.25 13.5585L1.25 25.6835C0.916684 25.8758 0.499999 25.6347 0.499999 25.2499L0.5 1.00183C0.5 0.616973 0.916684 0.375901 1.25 0.568236L22.25 12.6932Z" stroke="black" stroke-opacity="0.2"/>
<defs>
<filter id="filter0_i_66_287" x="0" y="0" width="23" height="26.2517" filterUnits="userSpaceOnUse" color-interpolation-filters="sRGB">
<feFlood flood-opacity="0" result="BackgroundImageFix"/>
<feBlend mode="normal" in="SourceGraphic" in2="BackgroundImageFix" result="shape"/>
<feColorMatrix in="SourceAlpha" type="matrix" values="0 0 0 0 0 0 0 0 0 0 0 0 0 0 0 0 0 0 127 0" result="hardAlpha"/>
<feOffset dx="2" dy="1"/>
<feComposite in2="hardAlpha" operator="arithmetic" k2="-1" k3="1"/>
<feColorMatrix type="matrix" values="0 0 0 0 0 0 0 0 0 0 0 0 0 0 0 0 0 0 0.55 0"/>
<feBlend mode="normal" in2="shape" result="effect1_innerShadow_66_287"/>
</filter>
</defs>
</svg>
