<svg width="23" height="27" viewBox="0 0 23 27" fill="none" xmlns="http://www.w3.org/2000/svg">
<g filter="url(#filter0_i_66_290)">
<path d="M0.499999 13.9919C-0.166668 13.607 -0.166667 12.6447 0.5 12.2598L21.5 0.135472C22.1667 -0.249428 23 0.231697 23 1.0015L23 25.2502C23 26.02 22.1667 26.5011 21.5 26.1162L0.499999 13.9919Z" fill="#444444"/>
</g>
<path d="M0.75 13.5585C0.437688 13.378 0.418084 12.9444 0.691407 12.7323L0.75 12.6932L21.75 0.568238C22.0833 0.375902 22.5 0.616972 22.5 1.00183L22.5 25.2499C22.5 25.6347 22.0833 25.8758 21.75 25.6835L0.75 13.5585Z" stroke="black" stroke-opacity="0.2"/>
<defs>
<filter id="filter0_i_66_290" x="0" y="0" width="23" height="26.2517" filterUnits="userSpaceOnUse" color-interpolation-filters="sRGB">
<feFlood flood-opacity="0" result="BackgroundImageFix"/>
<feBlend mode="normal" in="SourceGraphic" in2="BackgroundImageFix" result="shape"/>
<feColorMatrix in="SourceAlpha" type="matrix" values="0 0 0 0 0 0 0 0 0 0 0 0 0 0 0 0 0 0 127 0" result="hardAlpha"/>
<feOffset dx="2" dy="1"/>
<feComposite in2="hardAlpha" operator="arithmetic" k2="-1" k3="1"/>
<feColorMatrix type="matrix" values="0 0 0 0 0 0 0 0 0 0 0 0 0 0 0 0 0 0 0.55 0"/>
<feBlend mode="normal" in2="shape" result="effect1_innerShadow_66_290"/>
</filter>
</defs>
</svg>
